<svg width="261" height="35" viewBox="0 0 261 35" fill="none" xmlns="http://www.w3.org/2000/svg">
<g clip-path="url(#clip0)">
<path d="M68.7189 3.17731H56.5061V0H84.6054V3.17731H72.3926V34.7518H68.7189V3.17731Z" fill="#3970FD"/>
<path d="M96.1991 35C93.6838 35 91.4166 34.4374 89.3977 33.3121C87.3788 32.1537 85.7902 30.565 84.6318 28.5461C83.4734 26.5272 82.8942 24.2435 82.8942 21.695C82.8942 19.1466 83.4734 16.8629 84.6318 14.844C85.7902 12.8251 87.3788 11.253 89.3977 10.1277C91.4166 9.00236 93.6838 8.43972 96.1991 8.43972C98.7145 8.43972 100.982 9.00236 103.001 10.1277C105.019 11.253 106.592 12.8251 107.717 14.844C108.875 16.8629 109.454 19.1466 109.454 21.695C109.454 24.2435 108.875 26.5272 107.717 28.5461C106.592 30.565 105.019 32.1537 103.001 33.3121C100.982 34.4374 98.7145 35 96.1991 35ZM96.1991 31.8723C98.0526 31.8723 99.7074 31.4586 101.164 30.6312C102.653 29.7707 103.811 28.5626 104.639 27.0071C105.466 25.4515 105.88 23.6808 105.88 21.695C105.88 19.7092 105.466 17.9385 104.639 16.383C103.811 14.8274 102.653 13.6359 101.164 12.8085C99.7074 11.948 98.0526 11.5177 96.1991 11.5177C94.3457 11.5177 92.6743 11.948 91.185 12.8085C89.7287 13.6359 88.5703 14.8274 87.7098 16.383C86.8824 17.9385 86.4686 19.7092 86.4686 21.695C86.4686 23.6808 86.8824 25.4515 87.7098 27.0071C88.5703 28.5626 89.7287 29.7707 91.185 30.6312C92.6743 31.4586 94.3457 31.8723 96.1991 31.8723Z" fill="#3970FD"/>
<path d="M115.906 0H130.055C133.729 0 136.972 0.744681 139.785 2.23404C142.599 3.69031 144.783 5.74232 146.339 8.39007C147.894 11.0047 148.672 14 148.672 17.3759C148.672 20.7518 147.894 23.7636 146.339 26.4113C144.783 29.026 142.599 31.078 139.785 32.5674C136.972 34.0236 133.729 34.7518 130.055 34.7518H115.906V0ZM129.856 31.5745C132.901 31.5745 135.566 30.9787 137.849 29.7872C140.133 28.5626 141.904 26.8913 143.161 24.773C144.419 22.6217 145.048 20.156 145.048 17.3759C145.048 14.5957 144.419 12.1466 143.161 10.0284C141.904 7.87707 140.133 6.20567 137.849 5.01418C135.566 3.7896 132.901 3.17731 129.856 3.17731H119.58V31.5745H129.856Z" fill="#3970FD"/>
<path d="M165.361 35C162.846 35 160.579 34.4374 158.56 33.3121C156.541 32.1537 154.952 30.565 153.794 28.5461C152.636 26.5272 152.056 24.2435 152.056 21.695C152.056 19.1466 152.636 16.8629 153.794 14.844C154.952 12.8251 156.541 11.253 158.56 10.1277C160.579 9.00236 162.846 8.43972 165.361 8.43972C167.877 8.43972 170.144 9.00236 172.163 10.1277C174.182 11.253 175.754 12.8251 176.879 14.844C178.037 16.8629 178.617 19.1466 178.617 21.695C178.617 24.2435 178.037 26.5272 176.879 28.5461C175.754 30.565 174.182 32.1537 172.163 33.3121C170.144 34.4374 167.877 35 165.361 35ZM165.361 31.8723C167.215 31.8723 168.87 31.4586 170.326 30.6312C171.815 29.7707 172.974 28.5626 173.801 27.0071C174.629 25.4515 175.042 23.6808 175.042 21.695C175.042 19.7092 174.629 17.9385 173.801 16.383C172.974 14.8274 171.815 13.6359 170.326 12.8085C168.87 11.948 167.215 11.5177 165.361 11.5177C163.508 11.5177 161.837 11.948 160.347 12.8085C158.891 13.6359 157.733 14.8274 156.872 16.383C156.045 17.9385 155.631 19.7092 155.631 21.695C155.631 23.6808 156.045 25.4515 156.872 27.0071C157.733 28.5626 158.891 29.7707 160.347 30.6312C161.837 31.4586 163.508 31.8723 165.361 31.8723Z" fill="#3970FD"/>
<path d="M185.068 0H188.742V31.5745H208.203V34.7518H185.068V0Z" fill="#3970FD"/>
<path d="M212.094 8.78882H215.619V34.9023H212.094V8.78882ZM213.881 5.05832C213.153 5.05832 212.541 4.8101 212.044 4.31364C211.548 3.81719 211.3 3.22145 211.3 2.52641C211.3 1.86447 211.548 1.28528 212.044 0.78882C212.541 0.292367 213.153 0.04414 213.881 0.04414C214.609 0.04414 215.221 0.292367 215.718 0.78882C216.214 1.25218 216.463 1.81482 216.463 2.47676C216.463 3.2049 216.214 3.81719 215.718 4.31364C215.221 4.8101 214.609 5.05832 213.881 5.05832Z" fill="#3970FD"/>
<path d="M230.912 35C228.794 35 226.758 34.7021 224.806 34.1064C222.886 33.4775 221.38 32.6998 220.288 31.7731L221.876 28.9929C222.969 29.8534 224.342 30.565 225.997 31.1277C227.652 31.6572 229.373 31.922 231.16 31.922C233.543 31.922 235.297 31.5579 236.423 30.8298C237.581 30.0686 238.16 29.0095 238.16 27.6525C238.16 26.6927 237.846 25.948 237.217 25.4184C236.588 24.8558 235.794 24.4421 234.834 24.1773C233.874 23.8794 232.6 23.5981 231.011 23.3333C228.893 22.9362 227.188 22.539 225.898 22.1418C224.607 21.7116 223.498 21 222.571 20.0071C221.678 19.0142 221.231 17.6407 221.231 15.8865C221.231 13.7021 222.141 11.9149 223.962 10.5248C225.782 9.13475 228.314 8.43972 231.557 8.43972C233.245 8.43972 234.933 8.67139 236.621 9.13475C238.309 9.56501 239.699 10.1442 240.791 10.8723L239.252 13.7021C237.101 12.2128 234.536 11.4681 231.557 11.4681C229.307 11.4681 227.602 11.8652 226.444 12.6596C225.319 13.4539 224.756 14.4965 224.756 15.7872C224.756 16.7801 225.07 17.5745 225.699 18.1702C226.361 18.766 227.172 19.2128 228.132 19.5106C229.092 19.7754 230.415 20.0567 232.103 20.3546C234.188 20.7518 235.86 21.1489 237.118 21.5461C238.375 21.9433 239.451 22.6217 240.345 23.5816C241.238 24.5414 241.685 25.8652 241.685 27.5532C241.685 29.8369 240.725 31.6572 238.806 33.0142C236.919 34.3381 234.288 35 230.912 35Z" fill="#3970FD"/>
<path d="M260.464 33.1631C259.802 33.7589 258.974 34.2222 257.981 34.5532C257.022 34.8511 256.012 35 254.953 35C252.504 35 250.617 34.3381 249.293 33.0142C247.97 31.6903 247.308 29.8203 247.308 27.4043V11.617H242.641V8.6383H247.308V2.92908H250.832V8.6383H258.776V11.617H250.832V27.2057C250.832 28.7612 251.213 29.9527 251.974 30.7801C252.769 31.5745 253.894 31.9716 255.35 31.9716C256.078 31.9716 256.773 31.8558 257.435 31.6241C258.13 31.3924 258.726 31.0615 259.223 30.6312L260.464 33.1631Z" fill="#3970FD"/>
<rect x="1.25" y="1.25" width="32.5" height="32.5" fill="#3970FD" stroke="#3261DC" stroke-width="2.5"/>
<path d="M8.60638 17.0872L16.1349 26.4272L28.4125 6.57065" stroke="white" stroke-width="3"/>
</g>
<defs>
<clipPath id="clip0">
<rect width="261" height="35" fill="white"/>
</clipPath>
</defs>
</svg>
